{"title":"Monty Python Live (Mostly) Mulki Edt.","uid":10620605,"size":1176565404,"categoryP":"video","categoryS":"tv_shows","magnet":"?xt=urn:btih:ac654dd57008f9ea3a3c9b29de58f6ce4ef2cb81&amp;dn=Monty+Python+Live+%28Mostly%29+Mulki+Edt.&amp;tr=udp%3A%2F%2Ftracker.openbittorrent.com%3A80&amp;tr=udp%3A%2F%2Fopen.demonii.com%3A1337&amp;tr=udp%3A%2F%2Ftracker.coppersurfer.tk%3A6969&amp;tr=udp%3A%2F%2Fexodus.desync.com%3A6969","seeders":1,"leechers":0,"uploader":"OhSleeper","files":1,"time":1406166397,"description":"TV Rip From Danish channel DR2. Danish hardcoded subtitles. I upload this because I thought there was need for a smaller file than the 2.8GB one. Enjoy!\n\nGeneral\nComplete name                            : Monty Python Live (Mostly)Mulki Edt..avi\nFormat                                   : AVI\nFormat/Info                              : Audio Video Interleave\nFormat profile                           : OpenDML\nFile size                                : 1.10 GiB\nDuration                                 : 2h 15mn\nOverall bit rate                         : 1 156 Kbps\nWriting application                      : Lavf54.6.100\n\nVideo\nID                                       : 0\nFormat                                   : AVC\nFormat/Info                              : Advanced Video Codec\nFormat profile                           : &lt;a class=&quot;__cf_email__&quot; href=&quot;/cdn-cgi/l/email-protection&quot; data-cfemail=&quot;7436150711181d1a113438455a47&quot;&gt;[email&amp;#160;protected]&lt;/a&gt;&lt;script cf-hash='f9e31' type=&quot;text/javascript&quot;&gt;\n/* &lt;![CDATA[ */!function(){try{var t=&quot;currentScript&quot;in document?document.currentScript:function(){for(var t=document.getElementsByTagName(&quot;script&quot;),e=t.length;e--;)if(t[e].getAttribute(&quot;cf-hash&quot;))return t[e]}();if(t&amp;&amp;t.previousSibling){var e,r,n,i,c=t.previousSibling,a=c.getAttribute(&quot;data-cfemail&quot;);if(a){for(e=&quot;&quot;,r=parseInt(a.substr(0,2),16),n=2;a.length-n;n+=2)i=parseInt(a.substr(n,2),16)^r,e+=String.fromCharCode(i);e=document.createTextNode(e),c.parentNode.replaceChild(e,c)}}}catch(u){}}();/* ]]&gt; */&lt;/script&gt;\nFormat settings, CABAC                   : No\nFormat settings, ReFrames                : 2 frames\nCodec ID                                 : H264\nDuration                                 : 2h 15mn\nBit rate                                 : 1 024 Kbps\nWidth                                    : 720 pixels\nHeight                                   : 400 pixels\nDisplay aspect ratio                     : 16:9\nFrame rate mode                          : Variable\nFrame rate                               : 25.000 fps\nColor space                              : YUV\nChroma subsampling                       : 4:2:0\nBit depth                                : 8 bits\nScan type                                : Progressive\nBits/(Pixel*Frame)                       : 0.142\nStream size                              : 998 MiB (89%)\nWriting library                          : x264 core 119\nEncoding settings                        : cabac=0 / ref=2 / deblock=1:0:0 / \n\nAudio\nID                                       : 1\nFormat                                   : MPEG Audio\nFormat version                           : Version 1\nFormat profile                           : Layer 3\nMode                                     : Joint stereo\nCodec ID                                 : 55\nCodec ID/Hint                            : MP3\nDuration                                 : 2h 15mn\nBit rate mode                            : Constant\nBit rate                                 : 112 Kbps\nChannel(s)                               : 2 channels\nSampling rate                            : 44.1 KHz\nCompression mode                         : Lossy\nStream size                              : 109 MiB (10%)\nAlignment                                : Aligned on interleaves\nInterleave, duration                     : 26 ms (0.65 video frame)\nInterleave, preload duration             : 26 ms\n\n","torrent":{"xt":"urn:btih:ac654dd57008f9ea3a3c9b29de58f6ce4ef2cb81","amp;dn":"Monty+Python+Live+%28Mostly%29+Mulki+Edt.","amp;tr":["udp%3A%2F%2Ftracker.openbittorrent.com%3A80","udp%3A%2F%2Fopen.demonii.com%3A1337","udp%3A%2F%2Ftracker.coppersurfer.tk%3A6969","udp%3A%2F%2Fexodus.desync.com%3A6969"],"infoHash":"ac654dd57008f9ea3a3c9b29de58f6ce4ef2cb81","infoHashBuffer":{"type":"Buffer","data":[172,101,77,213,112,8,249,234,58,60,155,41,222,88,246,206,78,242,203,129]},"announce":[],"urlList":[]}}